<svg width="800" height="476" viewBox="0 0 800 476" fill="none" xmlns="http://www.w3.org/2000/svg">
<style type="text/css">
    <![CDATA[

        #stars1 {
            animation: blinking 700ms ease-in-out infinite alternate;
            transform-origin: center;
            transform-box: fill-box;
        }
        
        #planet {
            animation: sparkle 700ms ease-in-out infinite alternate;
            transform-origin: center;
            transform-box: fill-box;
        }

        #planet2 {
            animation: sparkle 700ms ease-in-out infinite alternate;
            transform-origin: center;
            transform-box: fill-box;
        }
        
        @keyframes sparkle {
            0% { transform: rotateZ(0deg);}
            50% {transform: rotateZ(10deg);}
            100% { transform: rotateZ(0deg);}
        }
    

        @keyframes blinking {
            from {opacity: 1;}
            to {opacity: 0;}
        }
        ]]>
    </style>
<g id="space">
<g clip-path="url(#clip0)">
<g id="Group">
<path id="Vector" d="M776.512 164.658C754.312 122.958 715.712 84.5585 662.412 56.3585C606.412 26.6585 537.412 8.95848 465.612 2.75848C392.712 -3.64152 317.512 1.25848 247.512 15.7585C176.712 30.3585 105.512 54.6585 56.1115 90.9585C29.9115 110.158 11.2115 132.958 4.11153 158.158C-3.58847 185.558 0.511534 213.458 8.31153 240.758C23.4115 292.358 53.7115 342.958 101.812 385.858C113.612 396.358 126.312 406.358 139.912 415.758C142.012 417.258 144.512 417.658 146.812 417.258C147.612 417.358 148.412 417.658 149.212 417.658C244.212 424.158 339.312 432.058 434.712 435.758C523.112 439.158 617.212 437.758 700.112 415.358C736.912 405.458 754.012 385.858 768.312 363.058C781.812 341.758 790.812 319.558 795.712 296.758C805.112 252.658 799.012 206.858 776.512 164.658Z" fill="#56597A"/>
<path id="Vector_2" d="M736.012 384.558C729.612 371.858 712.312 363.658 696.712 358.458C647.212 341.958 591.112 333.858 537.312 331.058C481.312 328.158 425.112 332.158 370.612 342.458C369.012 342.758 367.812 343.358 367.212 344.158C336.512 346.058 305.912 349.158 275.612 353.658C250.112 357.458 224.612 362.558 199.812 368.358C177.012 373.758 153.112 379.258 131.912 387.658C116.812 393.758 103.212 403.558 103.212 417.358C103.212 430.458 115.612 440.758 129.312 447.658C147.412 457.058 169.912 461.258 191.112 464.858C215.612 468.958 240.512 471.358 265.512 472.758C372.312 478.858 482.512 473.458 587.312 457.358C632.212 450.458 682.512 440.458 719.112 418.658C733.312 410.758 742.912 398.058 736.012 384.558Z" fill="#B4C7E7"/>
<path id="Vector_3" d="M229.411 176.759C224.211 176.759 224.211 184.659 229.411 184.659C234.411 184.659 234.411 176.759 229.411 176.759Z" fill="white"/>
<path id="Vector_4" d="M292.311 192.458C287.111 192.458 287.111 200.359 292.311 200.359C297.511 200.359 297.511 192.458 292.311 192.458Z" fill="white"/>
<path id="Vector_5" d="M237.911 290.558C232.711 290.558 232.711 298.458 237.911 298.458C242.911 298.458 242.911 290.558 237.911 290.558Z" fill="white"/>
<path id="Vector_6" d="M294.811 245.859C289.611 245.859 289.611 253.759 294.811 253.759C299.811 253.759 299.811 245.859 294.811 245.859Z" fill="white"/>
<path id="Vector_7" d="M523.712 306.358C518.512 306.358 518.512 314.258 523.712 314.258C528.712 314.258 528.712 306.358 523.712 306.358Z" fill="white"/>
<path id="Vector_8" d="M608.511 214.859C606.411 214.959 604.511 216.559 604.511 218.859V220.059C604.511 222.159 606.411 224.159 608.511 224.059C610.611 223.959 612.511 222.359 612.511 220.059V218.859C612.511 216.659 610.611 214.759 608.511 214.859Z" fill="white"/>
<path id="Vector_9" d="M551.512 222.759C546.312 222.759 546.312 230.659 551.512 230.659C556.712 230.659 556.612 222.759 551.512 222.759Z" fill="white"/>
<path id="Vector_10" d="M534.911 168.558C529.711 168.558 529.711 176.458 534.911 176.458C540.011 176.458 540.011 168.558 534.911 168.558Z" fill="white"/>
<path id="Vector_11" d="M502.612 84.9585C497.412 84.9585 497.412 92.8585 502.612 92.8585C507.812 92.8585 507.812 84.9585 502.612 84.9585Z" fill="white"/>
<path id="Vector_12" d="M400.212 66.5585C395.012 66.5585 395.012 74.4585 400.212 74.4585C405.212 74.5585 405.212 66.5585 400.212 66.5585Z" fill="white"/>
<path id="Vector_13" d="M396.511 123.559C394.411 123.659 392.511 125.259 392.511 127.559V128.759C392.511 130.859 394.411 132.859 396.511 132.759C398.611 132.659 400.511 131.059 400.511 128.759V127.559C400.411 125.359 398.611 123.359 396.511 123.559Z" fill="white"/>
<path id="Vector_14" d="M343.312 165.858C341.212 165.958 339.312 167.558 339.312 169.858V171.058C339.312 173.158 341.212 175.158 343.312 175.058C345.412 174.958 347.312 173.358 347.312 171.058V169.858C347.212 167.758 345.412 165.758 343.312 165.858Z" fill="white"/>
<path id="Vector_15" d="M314.112 81.0585C308.912 81.0585 308.912 88.9585 314.112 88.9585C319.312 88.9585 319.312 81.0585 314.112 81.0585Z" fill="white"/>
<path id="Vector_16" d="M321.411 325.658C316.211 325.658 316.211 333.558 321.411 333.558C326.411 333.558 326.611 325.658 321.411 325.658Z" fill="white"/>
<path id="Vector_17" d="M598.712 362.158C597.612 361.058 596.312 360.958 595.312 361.258H595.212C587.912 360.458 577.912 362.058 572.812 368.058C568.212 373.358 572.012 380.258 577.812 382.458C584.612 384.958 593.912 382.558 599.812 378.858C606.812 374.358 603.512 366.658 598.712 362.158ZM594.812 372.358C594.012 373.158 591.512 373.658 590.612 373.958C587.812 374.858 582.912 376.458 580.312 374.658C578.412 373.358 579.012 372.958 580.812 371.758C582.112 370.858 583.612 370.258 585.012 369.858C588.212 368.958 591.412 368.658 594.512 369.058C595.412 369.958 595.912 371.058 594.812 372.358Z" fill="#57455D"/>
<path id="Vector_18" d="M544.512 356.758C543.812 354.458 541.712 353.758 539.612 353.958C535.812 354.458 531.912 355.058 528.112 355.558C526.012 355.858 524.812 358.558 525.312 360.458C526.012 362.758 528.112 363.458 530.212 363.258C534.012 362.758 537.912 362.158 541.712 361.658C543.812 361.358 545.012 358.758 544.512 356.758Z" fill="#57455D"/>
<path id="Vector_19" d="M450.311 423.058L437.311 426.058C432.311 427.258 434.411 434.958 439.411 433.758C443.811 432.658 448.111 431.758 452.411 430.758C457.511 429.558 455.411 421.858 450.311 423.058Z" fill="#57455D"/>
<path id="Vector_20" d="M325.112 421.258C324.412 418.958 322.312 418.058 320.212 418.458C317.712 418.858 315.212 419.258 312.712 419.658C310.612 420.058 309.412 422.658 309.912 424.558C310.612 426.858 312.712 427.758 314.812 427.358C317.312 426.958 319.812 426.558 322.312 426.158C324.512 425.758 325.712 423.058 325.112 421.258Z" fill="#57455D"/>
<path id="Vector_21" d="M307.812 382.259C303.812 378.059 297.512 377.359 291.712 378.259C291.012 378.159 290.212 378.159 289.412 378.359C288.512 378.759 287.412 379.159 286.412 379.559C285.712 379.859 285.112 380.059 284.512 380.359C284.412 380.459 284.112 380.459 284.012 380.659C278.712 383.159 273.012 387.059 275.812 392.859C279.412 400.359 292.312 398.459 298.612 396.459C304.212 394.759 314.312 389.259 307.812 382.259ZM299.712 387.559C298.012 388.459 295.712 389.159 293.712 389.559C292.012 389.959 290.312 390.059 288.412 390.059C287.212 390.059 285.812 389.659 284.612 389.659C285.012 389.359 285.412 389.159 285.812 388.859C287.412 387.959 289.012 387.159 290.712 386.459C293.612 385.559 296.512 385.559 299.612 386.459C301.212 387.159 301.812 386.359 299.712 387.559Z" fill="#57455D"/>
<path id="Vector_22" d="M333.512 364.158H327.412C325.312 364.158 323.312 366.058 323.412 368.158C323.512 370.258 325.112 372.158 327.412 372.158H333.512C335.612 372.158 337.612 370.258 337.512 368.158C337.312 366.058 335.712 364.158 333.512 364.158Z" fill="#57455D"/>
<path id="Vector_23" d="M541.512 414.158C535.812 414.658 530.112 415.259 524.412 415.759C519.412 416.259 519.412 424.258 524.412 423.658C530.112 423.158 535.812 422.558 541.512 422.058C546.612 421.558 546.612 413.658 541.512 414.158Z" fill="#57455D"/>
<path id="Vector_24" d="M384.611 418.859C380.511 418.459 376.711 418.759 372.611 419.559C370.511 419.959 369.311 422.459 369.811 424.459C370.511 426.759 372.611 427.659 374.711 427.259C378.011 426.759 381.311 426.559 384.611 426.959C386.711 427.059 388.611 424.959 388.611 422.959C388.511 420.459 386.811 418.959 384.611 418.859Z" fill="#57455D"/>
<path id="Vector_25" d="M260.512 409.058C257.712 409.358 255.112 409.558 252.312 409.758C250.212 409.858 248.312 411.458 248.312 413.758C248.312 415.758 250.212 417.858 252.312 417.758C255.112 417.458 257.712 417.258 260.512 417.058C262.612 416.958 264.512 415.358 264.512 413.058C264.512 411.058 262.612 408.858 260.512 409.058Z" fill="#57455D"/>
<path id="Vector_26" d="M316.111 144.458C315.211 135.858 311.511 127.158 305.811 120.858C302.611 115.658 297.611 111.958 291.911 110.558C291.611 110.458 291.211 110.258 291.011 110.258C290.711 110.258 290.511 110.258 290.311 110.158C288.311 109.758 286.311 109.758 284.311 110.058C269.611 110.858 255.811 121.058 253.211 136.258C250.211 153.758 262.911 170.958 280.111 173.858C288.811 175.358 299.211 175.758 306.611 170.258C314.511 164.158 317.211 153.958 316.111 144.458Z" fill="#74A2D6"/>
<path id="Vector_27" d="M290.412 149.759C279.712 152.259 268.812 152.959 257.812 151.859C252.812 151.359 252.812 159.259 257.812 159.759C269.412 160.959 281.112 160.159 292.512 157.359C297.612 156.159 295.512 148.559 290.412 149.759Z" fill="#57455D"/>
<path id="Vector_28" d="M306.312 122.059C296.512 125.359 286.612 126.659 276.412 126.159C271.212 125.859 271.412 133.859 276.412 134.059C287.412 134.559 298.112 133.259 308.412 129.659C313.312 128.159 311.212 120.459 306.312 122.059Z" fill="#57455D"/>
<g id="planet2">
<path id="Vector_29" d="M736.412 225.859C734.912 207.359 720.412 192.759 702.812 190.959C687.412 183.659 667.712 187.559 656.212 200.259C642.812 215.059 641.812 238.259 651.612 255.159C674.812 294.759 739.712 269.759 736.412 225.859Z" fill="#EF86B0"/>
<path id="Vector_30" d="M684.112 241.358C674.412 246.558 663.812 248.158 653.312 245.858C648.312 244.758 646.212 252.458 651.212 253.558C664.012 256.158 676.612 254.458 688.312 248.258C692.612 245.658 688.612 238.958 684.112 241.358Z" fill="#57455D"/>
<path id="Vector_31" d="M720.212 208.258C708.212 213.158 695.812 216.358 682.912 217.658C677.912 218.158 677.912 226.158 682.912 225.558C696.512 224.058 709.612 220.958 722.312 215.858C727.112 214.058 725.012 206.358 720.212 208.258Z" fill="#57455D"/>
<path id="Vector_32" d="M709.112 254.558H704.512C702.412 254.558 700.412 256.458 700.512 258.558C700.612 260.658 702.212 262.558 704.512 262.558H709.112C711.212 262.558 713.212 260.658 713.112 258.558C713.012 256.258 711.412 254.558 709.112 254.558Z" fill="#57455D"/>
</g>
<g id="planet">
<path id="Vector_33" d="M150.412 218.958C148.112 213.658 144.412 209.158 139.012 206.158C132.112 202.358 123.812 202.058 116.912 204.958C116.812 204.958 116.512 204.958 116.412 205.058C102.412 208.758 91.5116 221.358 90.9116 236.058C90.4116 250.458 100.312 264.558 114.112 268.758C127.912 272.958 144.012 267.158 151.712 254.858C158.512 244.058 157.912 229.158 150.412 218.958Z" fill="#B4C7E7"/>
<path id="Vector_34" d="M159.911 224.858C154.711 224.558 154.911 232.558 159.911 232.758C162.011 233.158 162.511 234.258 161.611 235.758C161.611 237.658 160.511 238.558 158.411 238.358C156.011 239.158 153.511 239.658 151.111 240.358C147.011 241.458 143.011 242.458 138.911 243.358C129.511 245.458 120.012 247.358 110.412 248.658C100.912 250.158 91.1115 251.158 81.4115 251.658C79.8115 251.758 78.1115 251.958 76.5115 251.658C73.9115 251.158 72.7115 250.958 74.0115 248.258C75.9115 244.258 83.1115 241.858 87.0115 240.958C92.0115 239.758 89.9115 232.058 84.9115 233.258C77.1115 235.158 56.7115 246.358 68.0115 256.258C72.6115 260.358 79.5115 259.658 85.2115 259.258C93.9115 258.558 102.712 257.558 111.312 256.358C120.412 255.058 129.611 253.358 138.611 251.358C146.711 249.458 155.711 248.058 163.411 244.858C174.011 240.658 171.611 225.458 159.911 224.858Z" fill="#EF86B0"/>
<path id="Vector_35" d="M130.712 214.558H123.012C117.812 214.558 117.812 222.458 123.012 222.458H130.712C135.712 222.558 135.712 214.558 130.712 214.558Z" fill="#57455D"/>
<path id="Vector_36" d="M119.812 231.358C115.312 231.458 110.912 232.858 107.112 235.158C102.712 237.758 106.712 244.658 111.112 242.058C113.712 240.458 116.712 239.558 119.812 239.258C125.012 239.058 125.012 231.158 119.812 231.358Z" fill="#57455D"/>
<path id="Vector_37" d="M137.612 258.759C136.912 256.859 134.812 255.159 132.712 255.959C131.112 256.659 129.512 257.158 128.112 257.858C126.112 258.658 124.712 260.459 125.312 262.759C126.012 264.659 128.112 266.359 130.212 265.559C131.812 264.859 133.412 264.359 134.812 263.659C136.812 262.859 138.312 261.059 137.612 258.759Z" fill="#57455D"/>
</g>
<path id="Vector_38" d="M658.412 381.859C653.812 383.059 649.012 383.559 644.212 383.859C639.012 383.959 639.012 391.959 644.212 391.759C649.612 391.659 655.112 390.859 660.512 389.459C665.412 388.359 663.312 380.659 658.412 381.859Z" fill="#57455D"/>
<path id="Vector_39" d="M613.012 422.758C606.412 424.358 599.812 425.258 593.012 425.558C587.812 425.658 587.812 433.658 593.012 433.458C600.412 433.158 607.812 432.158 615.112 430.458C620.212 429.258 618.112 421.558 613.012 422.758Z" fill="#57455D"/>
<path id="Vector_40" d="M296.511 450.758C293.111 452.358 289.511 452.858 285.811 452.658C280.611 452.258 280.811 460.158 285.811 460.558C291.011 460.958 295.911 459.858 300.611 457.658C305.311 455.358 301.211 448.658 296.511 450.758Z" fill="#57455D"/>
<path id="Vector_41" d="M197.412 430.458H184.612C179.412 430.458 179.412 438.358 184.612 438.358H197.412C202.412 438.458 202.412 430.458 197.412 430.458Z" fill="#57455D"/>
<path id="Vector_42" d="M196.212 394.459C191.612 395.659 186.912 395.959 182.212 395.559C177.212 395.159 177.212 403.059 182.212 403.459C187.612 403.859 193.112 403.459 198.312 402.159C203.312 400.859 201.212 393.159 196.212 394.459Z" fill="#57455D"/>
<g id="stars2">
<path id="Vector_43" d="M224.712 229.059C221.912 229.159 219.912 229.959 218.312 231.459C218.212 231.359 217.912 231.159 217.812 231.059C216.312 229.759 216.312 227.359 216.512 225.459C216.812 222.059 213.212 220.859 210.712 222.159C208.412 222.459 206.312 224.259 206.912 227.059C207.612 230.759 206.112 234.059 203.312 236.459C200.012 240.259 205.012 245.459 208.912 242.059C211.512 239.059 214.112 243.759 214.612 246.059C215.812 250.159 222.912 249.659 222.412 244.959C222.312 243.759 221.912 240.959 222.312 239.159C224.612 238.459 226.712 237.059 228.012 234.959C229.812 232.459 227.612 228.859 224.712 229.059Z" fill="#F7D06F"/>
<path id="Vector_44" d="M622.812 278.658C619.112 278.658 618.812 274.058 618.812 271.358C618.812 269.458 617.712 268.358 616.412 267.958C614.512 265.458 610.012 265.058 609.412 268.858C609.012 271.658 607.412 274.158 605.012 275.458C603.312 275.458 601.612 275.958 600.012 276.958C596.812 278.858 597.912 284.758 602.012 284.358C603.512 284.258 604.812 283.958 606.112 283.458C608.012 284.258 608.612 287.958 608.712 289.658C608.812 294.158 615.112 294.958 616.512 290.758C617.412 287.958 619.912 286.658 622.712 286.758C628.012 286.558 628.012 278.758 622.812 278.658Z" fill="#F7D06F"/>
<path id="Vector_45" d="M579.512 104.159C576.712 104.659 574.912 103.059 574.612 100.859C575.012 99.1585 575.112 97.4585 575.012 95.5585C574.712 90.5585 566.812 90.3585 567.112 95.5585C567.112 95.9585 567.112 96.2585 567.112 96.4585C566.812 97.5585 566.712 98.5585 566.712 99.6585C565.812 103.359 563.312 106.459 559.412 107.759C559.112 107.859 558.712 108.059 558.512 108.159C554.412 110.059 557.312 117.059 561.512 115.459C561.912 115.359 562.212 115.159 562.612 115.059C565.212 113.859 567.212 115.559 568.712 117.959C569.012 120.859 570.212 123.759 572.412 126.259C575.012 129.159 580.212 126.159 579.012 122.459C578.312 120.359 577.512 118.259 576.512 116.259C576.912 113.959 579.012 112.159 581.812 111.659C586.712 110.959 584.612 103.359 579.512 104.159Z" fill="#F7D06F"/>
<path id="Vector_46" d="M460.012 70.8585C455.212 72.4585 455.012 66.4585 455.512 63.7585C456.012 60.8585 453.512 58.8585 451.312 58.7585C448.712 56.7585 443.812 58.8585 445.112 62.8585C447.012 68.4585 444.812 73.8585 440.112 76.8585C439.712 77.1585 439.212 77.3585 438.812 77.6585C434.412 80.4585 438.312 86.7585 442.812 84.5585C446.112 82.4585 448.812 84.4585 450.712 87.3585C451.212 89.7585 452.612 91.9585 454.412 94.1585C457.712 97.7585 462.312 93.2585 460.612 89.3585C459.912 87.8585 459.112 86.3585 458.112 84.8585C457.712 82.2585 459.212 79.6585 462.212 78.6585C466.912 76.7585 464.912 69.0585 460.012 70.8585Z" fill="#F7D06F"/>
<path id="Vector_47" d="M366.412 96.7584C365.312 96.7584 364.312 96.8584 363.412 97.1584C359.212 97.1584 356.512 93.5584 357.012 88.9584C357.312 86.6584 355.712 85.3584 354.012 85.2584C351.512 82.0584 345.512 84.1584 347.012 88.5584C348.912 93.5584 347.812 98.6584 344.512 102.358C343.812 102.858 343.312 103.458 342.812 104.058C339.512 108.058 344.512 112.958 348.412 109.658C348.712 109.358 348.912 109.158 349.212 108.858C352.012 106.958 354.612 111.458 355.812 114.058C355.912 114.358 355.912 114.458 356.112 114.758C358.612 119.358 365.012 115.258 363.012 110.758C362.912 110.658 362.912 110.358 362.712 110.258C361.812 107.858 362.812 105.758 365.112 105.058C366.012 105.058 366.812 104.958 367.712 104.658C371.812 103.558 370.912 96.6584 366.412 96.7584Z" fill="#F7D06F"/>
<path id="Vector_48" d="M285.912 281.658C281.112 282.858 277.012 280.858 275.212 276.858C275.112 275.158 274.812 273.458 274.112 271.658C274.012 271.158 273.812 270.558 273.612 270.158C273.312 269.458 272.912 268.858 272.512 268.158C270.012 263.758 263.112 267.758 265.612 272.158C265.912 272.558 266.012 272.958 266.312 273.358C266.412 275.058 266.712 276.758 267.212 278.358C267.112 280.758 266.312 282.958 264.812 284.958C262.812 286.058 261.012 287.558 259.512 289.758C257.112 293.158 261.612 296.858 264.912 295.158C266.912 294.058 268.512 292.758 269.912 291.158C272.812 290.658 275.712 293.058 276.312 296.458C277.112 301.458 284.812 299.358 284.012 294.358C283.612 291.758 285.512 289.558 287.812 288.958C293.112 287.958 291.012 280.358 285.912 281.658Z" fill="#F7D06F"/>
<path id="Vector_49" d="M756.112 308.658C753.512 309.058 750.912 309.458 748.312 309.958C747.912 307.958 747.612 306.158 747.212 304.158C746.312 299.158 738.712 301.258 739.512 306.258C739.812 307.958 740.012 309.558 740.412 311.258C738.512 311.558 736.812 311.758 735.012 312.158C730.012 312.958 732.112 320.658 737.112 319.858C738.712 319.558 740.112 319.358 741.712 319.058L742.912 326.058C743.812 331.058 751.412 328.958 750.612 323.958C750.212 321.858 749.912 319.858 749.512 317.758C752.412 317.358 755.212 316.858 758.112 316.458C763.312 315.458 761.112 307.858 756.112 308.658Z" fill="#F7D06F"/>
<path id="Vector_50" d="M140.312 121.958H132.012C130.912 118.258 130.012 114.558 129.012 110.958C127.712 106.058 120.012 108.158 121.312 113.058C122.112 115.958 122.912 119.058 123.812 121.958H120.612C115.412 121.958 115.412 129.858 120.612 129.858H126.012C126.512 131.558 126.912 133.258 127.512 135.058C128.812 139.958 136.512 137.858 135.212 132.958C134.912 131.858 134.712 130.958 134.412 129.958H140.612C145.412 129.858 145.412 121.958 140.312 121.958Z" fill="#F7D06F"/>
<path id="Vector_51" d="M153.212 297.959C151.112 298.759 148.812 299.459 146.712 300.259C146.212 298.959 145.512 297.659 145.012 296.259C144.112 294.259 141.312 293.859 139.612 294.759C137.612 295.959 137.312 298.159 138.112 300.159C138.512 300.959 138.912 301.859 139.312 302.659C138.512 302.959 137.712 303.159 136.912 303.459C132.112 305.059 134.112 312.759 139.012 311.159C140.212 310.759 141.312 310.359 142.412 309.959C142.912 311.259 143.612 312.559 144.112 313.959C145.012 315.959 147.812 316.359 149.512 315.459C151.512 314.259 151.812 312.059 151.012 310.059C150.612 309.259 150.212 308.359 149.812 307.559C151.712 306.859 153.412 306.359 155.212 305.659C160.212 303.959 158.112 296.259 153.212 297.959Z" fill="#F7D06F"/>
<path id="Vector_52" d="M689.711 126.659H684.511C684.111 124.559 683.611 122.459 683.011 120.259C681.511 115.359 673.911 117.459 675.311 122.359C675.711 123.859 676.111 125.259 676.411 126.559H673.411C668.211 126.559 668.211 134.459 673.411 134.459H677.511C677.611 136.559 677.611 138.859 677.511 140.959C677.211 146.159 685.211 145.959 685.411 140.959C685.511 138.859 685.511 136.559 685.411 134.459H689.611C694.811 134.659 694.811 126.659 689.711 126.659Z" fill="#F7D06F"/>
<path id="Vector_53" d="M239.212 67.2584H230.212C229.812 64.3584 229.412 61.4584 229.012 58.5584C228.312 53.5584 220.712 55.6584 221.312 60.6584C221.612 62.9584 222.012 65.0584 222.212 67.2584H218.212C213.012 67.2584 213.012 75.1584 218.212 75.1584H223.212C223.512 76.8584 223.712 78.5584 224.012 80.3584C224.712 85.3584 232.312 83.2584 231.712 78.2584C231.612 77.1584 231.412 76.2584 231.312 75.2584H239.212C244.412 75.1584 244.412 67.2584 239.212 67.2584Z" fill="#F7D06F"/>
</g>
<g id="stars1">
<path id="Vector_54" d="M186.811 109.258C181.611 109.258 181.611 117.158 186.811 117.158C192.011 117.158 192.011 109.258 186.811 109.258Z" fill="white"/>
<path id="Vector_55" d="M85.5116 167.359C80.3116 167.359 80.3116 175.259 85.5116 175.259C90.7116 175.259 90.7116 167.359 85.5116 167.359Z" fill="white"/>
<path id="Vector_56" d="M202.012 318.658C196.812 318.658 196.812 326.558 202.012 326.558C207.012 326.558 207.012 318.658 202.012 318.658Z" fill="white"/>
<path id="Vector_57" d="M128.712 358.158C123.512 358.158 123.512 366.058 128.712 366.058C133.712 366.158 133.712 358.158 128.712 358.158Z" fill="white"/>
<path id="Vector_58" d="M94.9115 312.759C89.7115 312.759 89.7115 320.659 94.9115 320.659C100.011 320.759 100.011 312.759 94.9115 312.759Z" fill="white"/>
<path id="Vector_59" d="M302.112 31.2585C300.012 31.3585 298.112 32.9585 298.112 35.2585V36.4585C298.112 38.5585 300.012 40.5585 302.112 40.4585C304.212 40.3585 306.112 38.7585 306.112 36.4585V35.2585C306.112 33.0585 304.212 31.1585 302.112 31.2585Z" fill="white"/>
<path id="Vector_60" d="M478.911 132.859C473.711 132.859 473.711 140.759 478.911 140.759C484.011 140.859 484.011 132.859 478.911 132.859Z" fill="white"/>
<path id="Vector_61" d="M531.912 32.2585C530.312 30.7585 527.812 30.6585 526.312 32.2585C525.912 32.6585 525.512 33.0585 525.112 33.4585C523.612 34.9585 523.512 37.5585 525.112 39.0585C526.712 40.5585 529.212 40.6585 530.712 39.0585L531.912 37.8585C533.312 36.5585 533.512 33.7585 531.912 32.2585Z" fill="white"/>
<path id="Vector_62" d="M619.812 128.958H618.612C616.512 128.958 614.512 130.858 614.612 132.958C614.712 135.058 616.312 136.958 618.612 136.958H619.812C621.912 136.958 623.912 135.058 623.812 132.958C623.712 130.758 622.012 128.958 619.812 128.958Z" fill="white"/>
<path id="Vector_63" d="M749.012 168.558H747.812C745.712 168.558 743.712 170.458 743.812 172.558C743.912 174.658 745.512 176.558 747.812 176.558H749.012C751.112 176.558 753.112 174.658 753.012 172.558C752.912 170.358 751.212 168.558 749.012 168.558Z" fill="white"/>
<path id="Vector_64" d="M683.812 326.858C678.612 326.858 678.612 334.758 683.812 334.758C689.012 334.758 689.012 326.858 683.812 326.858Z" fill="white"/>
</g>
</g>
</g>
</g>
<defs>
<clipPath id="clip0">
<rect width="800" height="475.2" fill="white"/>
</clipPath>
</defs>
</svg>
