<svg width="92" height="88" viewBox="0 0 92 88" fill="none" xmlns="http://www.w3.org/2000/svg">
<g id="planet2">
<path id="Vector" d="M91.4115 38.8585C89.9115 20.3585 75.4116 5.75852 57.8116 3.95852C42.4116 -3.34148 22.7115 0.558525 11.2115 13.2585C-2.18846 28.0585 -3.18844 51.2585 6.61156 68.1585C29.8116 107.759 94.7115 82.7585 91.4115 38.8585Z" fill="#EF86B0"/>
<path id="Vector_2" d="M39.1117 54.3584C29.4117 59.5584 18.8117 61.1584 8.31166 58.8584C3.31166 57.7584 1.21163 65.4584 6.21163 66.5584C19.0116 69.1584 31.6117 67.4584 43.3117 61.2584C47.6117 58.6584 43.6117 51.9584 39.1117 54.3584Z" fill="#57455D"/>
<path id="Vector_3" d="M75.2116 21.2584C63.2116 26.1584 50.8116 29.3584 37.9116 30.6584C32.9116 31.1584 32.9116 39.1584 37.9116 38.5584C51.5116 37.0584 64.6116 33.9584 77.3116 28.8584C82.1116 27.0584 80.0116 19.3584 75.2116 21.2584Z" fill="#57455D"/>
<path id="Vector_4" d="M64.1116 67.5585H59.5115C57.4115 67.5585 55.4115 69.4585 55.5115 71.5585C55.6115 73.6585 57.2115 75.5585 59.5115 75.5585H64.1116C66.2116 75.5585 68.2116 73.6585 68.1116 71.5585C68.0116 69.2585 66.4116 67.5585 64.1116 67.5585Z" fill="#57455D"/>
</g>
</svg>
