<?xml version="1.0" encoding="utf-8"?>
<!-- Generator: Adobe Illustrator 24.1.2, SVG Export Plug-In . SVG Version: 6.00 Build 0)  -->
<svg version="1.1" id="Layer_1" xmlns="http://www.w3.org/2000/svg" xmlns:xlink="http://www.w3.org/1999/xlink" x="0px" y="0px"
	 viewBox="0 0 1366 768" style="enable-background:new 0 0 1366 768;" xml:space="preserve">
<path d="M678.59,328.87c0.12,1.36,1.02,3.05-1.67,2.09c-1.43-0.51-2.24,1.83-4.18,2.05c-1.04,0.12-2.74,0.67-4.11,1.12
	c-0.89,0.29-2.03-0.05-2.34,1.27c-0.1,0.41-0.38,0.7-0.78,0.47c-2.02-1.16-3.35,0.48-4.8,1.27c-5.92,3.22-11.63,6.89-16.62,11.36
	c-7.13,6.38-13.88,13.21-19.58,20.97c-0.11,0.15-0.16,0.39-0.3,0.45c-1.29,0.53,0.23,4.12-2.77,2.66c-4.09-2-5.02-3.79-3.47-6.83
	c1.83-3.57,3.81-7.07,5.93-10.49c7.65-12.37,18.35-21.57,30.87-28.63c8.43-4.75,17.73-7.08,27.39-7.77
	c7.45-0.53,14.9-0.65,22.23,1.07c2.55,0.6,5.2,1.16,7.5,2.34c1.21,0.62,2.45,0.92,3.54,1.44c4.23,2,9.1,2.9,12.42,6.73
	c0.81,0.94,2.5,0.84,3.77,1.7c12.01,8.07,19.58,19.14,21.85,33.34c2.22,13.86,2.74,27.84-0.58,41.7c-0.75,3.12-2.21,5.86-3.64,8.71
	c-1.64,3.27-3.79,6.32-4.97,9.84c-0.25,0.75-0.57,1.61-1.14,2.11c-3.4,2.97-5.76,6.84-8.97,10c-3.62,3.56-7.58,6.59-11.81,9.37
	c-3.34,2.2-6.41,4.85-9.63,7.21c-3.94,2.87-8.73,4.28-13.35,5.88c-4.26,1.48-8.68,2.19-13.1,2.92c-0.73,0.12-1.33,0.55-1.88-0.32
	c-0.15-0.24-0.66-0.47-0.9-0.39c-6.98,2.31-16.26,0.1-21.87-2.81c-7.05-3.66-13.5-8.25-18.62-14.27
	c-4.14-4.86-7.03-10.58-8.62-16.95c-1.22-4.9-2.6-9.74-3.44-14.73c-1.17-6.95,0.71-13.15,4.16-19c2.9-4.92,6.15-9.61,9.58-14.18
	c3.44-4.58,8.5-6.5,13.52-8.09c6.01-1.91,12.32-2.75,18.72-2.5c4.48,0.17,8.28,1.76,11.49,4.83c4.42,4.22,7.62,9.28,10.15,14.81
	c2.11,4.62,2.2,9.68,3.15,14.55c0.23,1.16-0.56,1.99-1.95,2.08c-1.18,0.08-2.11,0.58-1.64,2.07c0.19,0,0.27,0.01,0.36,0
	c1.14-0.1,1.3-2.39,2.74-1.45c1.3,0.85,0.95,2.43,0.84,3.78c-0.47,5.7-2.58,10.69-6.86,14.53c-3.55,3.19-6.7,6.74-11.58,8.41
	c-9.84,3.37-14.71,0.51-21.87-6.12c-2.36-2.18-3.07-5.26-4.17-8.12c-3.29-8.54,3.14-14.27,10.35-14.34
	c-0.78,2.92-4.68,2.33-5.99,5.36c2.46-0.74,4-2.18,5.83-3.03c0.82-0.38,2.25-1.37,2.58-0.34c0.38,1.22,2.41,1.71,1.01,4.12
	c-1.49,2.57-3.13,5.35-3.94,8.36c-0.69,2.57,0.98,4.58,3.54,4.35c7.16-0.63,13.33-3.72,18.31-8.62c3.22-3.17,4.09-7.81,3.73-12.32
	c-0.38-4.75-0.59-9.57-2.56-14.06c-0.59-1.35-3.34-6.21-4.56-7.12c-0.91-0.68-1.99-1.01-3.2-1c-0.62,0-1.64,0.66-1.75-0.87
	c-0.05-0.73-1.34-0.75-1.39-0.17c-0.16,1.96-1.67,1.47-2.63,1.52c-5.26,0.31-10.16,2.26-15.25,3.32c-2.08,0.43-3.9,1.94-4.57,4.21
	c-0.31,1.03-0.89,1.91-1.69,2.39c-4.16,2.53-5.29,6.96-7.26,10.94c-1.17,2.35-3.37,4.1-4.19,6.79c-1.34,4.43-1.42,8.91-0.45,13.31
	c1.07,4.86,2.3,9.73,4.36,14.29c2.99,6.59,8.73,9.86,15.22,12.18c2.51,0.9,5.4,0.38,7.73,2.28c0.36,0.3,2.52-0.88,4.02-1.03
	c14.22-1.37,26.94-6.75,38.97-14.24c7.73-4.82,13.52-11.37,18.6-18.73c7.72-11.18,10.01-23.89,10.29-37.08
	c0.14-6.62-0.05-13.26-0.91-19.86c-1.24-9.48-6.1-16.29-14.5-20.89c-3.84-2.1-7.79-4.04-11.63-6.11c-1.55-0.83-3.94-2.04-6.68-1.44
	c-2.38,0.52-5.2-0.84-7.92-0.92c-2.93-0.09-5.82-1.23-8.82-0.44c-0.77,0.2-0.95-0.05-0.52-0.83c0.33-0.6-0.42-0.92-0.7-0.67
	c-2.45,2.2-5.94,0.29-8.58,2.42C680.87,332.33,680.38,329.28,678.59,328.87z M666.32,325.45c-7.91-0.7-32.85,17.62-36.46,25.89
	C640.54,340.63,651.88,330.86,666.32,325.45z M692.33,450.47c2.3-0.72,4.65-1.32,6.91-2.17c9.03-3.38,16.95-8.73,24.71-14.31
	c0.66-0.47,2.23-1.82,0.86-3.54C715.56,439.78,703.88,444.94,692.33,450.47z M677.86,425.75c1.16-0.36,2.31-0.78,3.49-1.06
	c3.68-0.89,6.04-3.85,9.08-5.74c0.55-0.34,0.77-1.11,0.42-1.7c-0.43-0.72-0.98-0.21-1.29,0.2
	C686.51,421.38,681.97,423.05,677.86,425.75z M657.58,376.29c-3.1,0.27-5.53,1.85-7.68,3.95
	C652.89,379.74,655.1,377.75,657.58,376.29z M663.58,334.12c-0.99,0-1.69,0.04-2.39-0.01c-0.95-0.06-1.48,0.48-1.89,1.21
	c-0.17,0.31-0.29,0.81,0.11,0.92c0.72,0.2,1.32-0.16,1.87-0.69C661.82,335.02,662.85,335.33,663.58,334.12z"/>
</svg>
