<svg width="800" height="499" viewBox="0 0 800 499" fill="none" xmlns="http://www.w3.org/2000/svg">
<style type="text/css">
 <![CDATA[
    #sunray {
        animation: radiating 5s infinite linear forwards;
        transform-origin: center;
        transform-box: fill-box;
    }

    #clouds {
        animation: float 1s ease-in-out infinite alternate;
        transform-origin: bottom;
    }

    .flowers{
        animation: blossom 700ms ease-in-out infinite alternate;
        transform-origin: center;
        transform-box: fill-box;
    }

    @keyframes radiating {
        from { transform: rotateZ(0deg);}
        to { transform: rotateZ(360deg);}
    }
    
    @keyframes float {
        from { transform: rotateX(0deg);}
        to { transform: rotateX(20deg);}
    }
    
    @keyframes blossom {
        0% { transform: rotateZ(0deg);}
        50% {transform: rotateZ(40deg);}
        100% { transform: rotateZ(0deg);}
    }
    

    ]]>
</style>
<g id="sunnysvg">
<g clip-path="url(#clip0)">
<g id="bg">
<!-- <g id="Vector">
<path d="M805.745 199.893C804.545 167.393 797.145 134.693 779.045 107.293C763.345 83.3927 741.245 64.2927 716.445 50.0927C656.445 15.5927 584.945 12.6927 517.445 12.9927C439.945 13.2927 362.345 18.1927 284.945 23.3927C250.845 25.6927 216.345 28.8927 183.945 39.4927C151.645 49.8927 123.545 68.5927 97.8454 90.4927C53.1454 128.693 2.94545 179.893 6.14545 243.393C7.74545 276.893 22.9454 308.893 40.2454 336.993C56.3454 363.193 76.3454 387.093 99.0454 407.893C108.745 416.693 119.145 424.893 129.945 432.393C130.245 434.693 132.245 436.893 135.345 436.293H135.445C137.345 437.293 139.045 436.593 140.245 435.293C213.045 420.193 289.045 434.093 361.845 442.393C400.545 446.693 439.345 451.193 478.045 455.593C516.145 459.893 554.845 466.593 593.245 465.693C655.545 464.293 712.545 432.093 750.245 383.093C789.845 331.593 807.945 264.093 805.745 199.893Z" fill="#B6D6E8"/>
<path d="M805.745 199.893C804.545 167.393 797.145 134.693 779.045 107.293C763.345 83.3927 741.245 64.2927 716.445 50.0927C656.445 15.5927 584.945 12.6927 517.445 12.9927C439.945 13.2927 362.345 18.1927 284.945 23.3927C250.845 25.6927 216.345 28.8927 183.945 39.4927C151.645 49.8927 123.545 68.5927 97.8454 90.4927C53.1454 128.693 2.94545 179.893 6.14545 243.393C7.74545 276.893 22.9454 308.893 40.2454 336.993C56.3454 363.193 76.3454 387.093 99.0454 407.893C108.745 416.693 119.145 424.893 129.945 432.393C130.245 434.693 132.245 436.893 135.345 436.293H135.445C137.345 437.293 139.045 436.593 140.245 435.293C213.045 420.193 289.045 434.093 361.845 442.393C400.545 446.693 439.345 451.193 478.045 455.593C516.145 459.893 554.845 466.593 593.245 465.693C655.545 464.293 712.545 432.093 750.245 383.093C789.845 331.593 807.945 264.093 805.745 199.893Z" fill="url(#paint0_linear)"/>
</g> -->
<path id="Vector_2" d="M739.345 450.193C705.245 434.693 667.745 437.693 631.545 440.793C591.245 444.293 551.145 444.693 510.645 442.993C435.545 439.693 360.945 429.793 286.045 424.593C285.445 423.993 284.645 423.693 283.545 423.593C240.045 418.093 196.145 416.093 152.245 417.793C136.045 418.393 117.645 418.993 104.745 430.093C94.6454 438.893 91.5454 454.693 103.745 463.293C104.045 463.593 104.445 463.693 104.745 463.893C105.445 464.593 106.145 465.293 107.045 465.893C107.145 465.993 107.145 465.993 107.345 465.993C112.545 470.793 120.245 471.893 127.045 472.993C139.045 474.893 151.245 476.793 163.245 478.393C212.045 485.193 261.245 490.293 310.345 493.493C409.945 499.893 509.745 498.693 609.245 489.893C636.245 487.593 663.345 484.793 690.245 481.093C709.345 478.293 729.545 473.093 740.945 456.193C742.145 454.293 741.445 451.093 739.345 450.193Z" fill="#3B8A28"/>
<g id="Group">
<path id="Vector_3" d="M622.845 407.693C619.945 369.993 617.045 332.293 614.245 294.693C612.645 273.693 611.045 252.693 609.445 231.793C609.045 225.593 609.545 217.293 603.545 213.493C597.345 209.693 586.345 210.893 579.245 210.293C576.745 210.193 575.045 212.493 574.945 214.593L574.345 223.993C568.945 232.293 570.145 327.293 572.745 363.393C574.045 381.793 575.745 400.093 577.945 418.293C579.645 432.393 579.545 450.893 591.845 460.493C601.745 468.193 614.345 464.793 620.545 454.593C628.645 441.393 623.845 422.093 622.845 407.693Z" fill="#57455E"/>
<path id="Vector_4" d="M709.145 125.393C720.345 114.193 717.145 95.0927 707.445 83.1927C702.345 77.0927 696.145 72.4927 689.745 67.7927C690.445 45.1927 681.145 22.5927 658.845 13.4927C639.445 5.49274 611.845 5.69274 592.745 16.6927C592.045 16.2927 591.445 15.7927 590.745 15.2927C586.545 11.6927 582.945 8.09274 578.145 5.29274C568.945 0.192742 558.245 -1.80726 547.945 -0.707258C526.245 1.89274 509.945 19.5927 506.745 40.5927C486.945 43.0927 469.045 56.9927 463.245 76.5927C457.545 95.6927 464.845 116.493 479.445 129.393C468.445 142.393 467.845 162.293 476.545 177.093C486.445 194.093 505.845 202.193 524.645 203.493C522.645 217.393 529.445 232.293 542.645 238.593C550.645 242.393 559.345 242.493 567.145 239.793C583.045 255.993 611.445 258.093 629.045 242.693C656.445 248.493 680.745 226.193 678.345 199.093C696.045 200.393 714.045 190.693 721.145 173.893C728.245 157.093 722.445 137.093 709.145 125.393Z" fill="#3B8A28"/>
<g id="Group_2">
<path id="Vector_5" d="M534.845 79.8927C534.245 77.3927 533.845 74.7927 533.245 72.3927C532.845 70.0927 530.045 68.7927 527.845 69.3927C525.545 70.0927 524.345 72.3927 524.845 74.7927C525.445 77.2927 525.845 79.8927 526.445 82.2927C526.845 84.5927 529.645 85.8927 531.845 85.2927C534.345 84.4927 535.345 82.1927 534.845 79.8927Z" fill="#57455E"/>
<path id="Vector_6" d="M555.945 91.1927C555.245 84.9927 551.846 78.5927 545.346 76.8927C539.146 75.2927 533.745 78.8927 529.545 83.2927C524.645 80.6927 519.545 77.4927 514.345 81.5927C508.945 85.6927 509.745 93.5927 512.045 99.2927C514.645 105.993 520.845 112.293 527.945 113.793C532.245 114.693 536.546 113.193 539.146 110.293C542.346 111.593 546.145 111.293 549.445 109.093C555.145 105.393 556.645 97.3927 555.945 91.1927Z" fill="#F087B1"/>
</g>
<g id="Group_3">
<path id="Vector_7" d="M596.945 172.793C596.945 170.193 596.945 167.593 597.045 165.093C597.045 162.793 594.745 160.893 592.545 160.893C590.045 160.993 588.445 163.093 588.345 165.393C588.345 167.993 588.345 170.593 588.245 173.093C588.245 175.393 590.545 177.293 592.745 177.293C595.345 177.293 596.945 175.293 596.945 172.793Z" fill="#57455E"/>
<path id="Vector_8" d="M615.045 188.493C615.745 182.293 613.845 175.293 607.945 172.293C602.145 169.393 596.245 171.693 591.145 175.093C586.945 171.493 582.545 167.293 576.645 170.193C570.545 173.093 569.545 180.893 570.545 186.893C571.745 193.893 576.245 201.493 583.045 204.593C587.145 206.293 591.445 205.893 594.745 203.693C597.645 205.693 601.445 206.193 605.045 204.693C611.245 202.093 614.445 194.693 615.045 188.493Z" fill="#F087B1"/>
</g>
<g id="Group_4">
<path id="Vector_9" d="M638.845 74.4928C639.445 71.9928 639.845 69.3928 640.445 66.9928C640.845 64.6928 643.645 63.3928 645.845 63.9928C648.145 64.6928 649.345 66.9928 648.845 69.3928C648.245 71.8928 647.845 74.4928 647.245 76.8928C646.845 79.1928 644.045 80.4928 641.845 79.8928C639.345 79.2928 638.345 76.8928 638.845 74.4928Z" fill="#57455E"/>
<path id="Vector_10" d="M624.045 103.793C627.345 105.993 631.146 106.293 634.346 104.993C637.146 107.893 641.145 109.293 645.545 108.493C652.745 107.093 658.846 100.493 661.446 93.9928C663.746 88.4928 664.446 80.4928 659.146 76.2928C653.946 72.1928 648.846 75.3928 643.946 77.9928C639.746 73.6928 634.346 69.8928 628.146 71.5928C621.646 73.2928 618.245 79.6928 617.545 85.8928C617.045 92.0928 618.545 99.9928 624.045 103.793Z" fill="#F087B1"/>
</g>
</g>
<g id="Group_5">
<path id="Vector_11" d="M157.145 445.993C153.945 443.793 151.245 441.093 149.045 437.893C147.745 435.993 145.245 435.093 143.145 436.293C141.245 437.493 140.245 440.393 141.545 442.193C144.745 446.493 148.345 450.293 152.845 453.393C154.745 454.693 157.645 453.693 158.745 451.793C159.945 449.793 159.045 447.293 157.145 445.993Z" fill="#E9D202"/>
<path id="Vector_12" d="M165.645 421.193C163.345 421.193 161.345 423.193 161.345 425.493V433.193C161.345 435.493 163.345 437.493 165.645 437.493C167.945 437.493 169.945 435.493 169.945 433.193V425.493C169.945 423.193 167.945 421.193 165.645 421.193Z" fill="#E9D202"/>
<path id="Vector_13" d="M179.045 437.693C176.845 437.293 174.145 438.293 173.645 440.693C173.545 441.693 173.245 442.593 172.745 443.593C172.645 443.893 172.445 443.993 172.445 444.293C172.145 444.693 171.845 445.293 171.545 445.693C170.245 447.593 171.145 450.593 173.145 451.593C175.345 452.793 177.745 451.993 179.045 449.993C180.445 447.793 181.345 445.493 181.945 442.893C182.545 440.893 181.445 438.293 179.045 437.693Z" fill="#E9D202"/>
</g>
<g id="Group_6">
<path id="Vector_14" d="M417.945 473.193C416.345 471.593 414.745 469.993 413.145 468.393C411.545 466.793 408.645 466.693 407.045 468.393C405.445 470.093 405.345 472.893 407.045 474.493C408.645 476.093 410.245 477.693 411.845 479.293C413.445 480.893 416.345 480.993 417.945 479.293C419.545 477.693 419.645 474.993 417.945 473.193Z" fill="#E9D202"/>
<path id="Vector_15" d="M417.745 444.993C415.445 444.993 413.445 446.993 413.445 449.293V456.993C413.445 459.293 415.445 461.293 417.745 461.293C420.045 461.293 422.045 459.293 422.045 456.993V449.293C422.145 446.893 420.145 444.993 417.745 444.993Z" fill="#E9D202"/>
<path id="Vector_16" d="M433.445 463.393C431.145 462.793 428.845 464.093 428.045 466.393C427.345 468.593 426.745 470.893 426.045 473.093C425.345 475.293 426.745 477.893 429.045 478.493C431.345 479.093 433.645 477.793 434.445 475.493C435.145 473.293 435.745 470.993 436.445 468.793C437.245 466.593 435.745 463.993 433.445 463.393Z" fill="#E9D202"/>
</g>
<g id="Group_7">
<path id="Vector_17" d="M670.146 463.393C668.246 462.393 666.246 461.493 664.346 460.493C662.346 459.493 659.546 459.893 658.446 462.093C657.446 464.093 657.845 466.993 660.045 467.993C661.945 468.993 663.946 469.893 665.846 470.893C667.846 471.893 670.646 471.493 671.746 469.293C672.746 467.493 672.246 464.593 670.146 463.393Z" fill="#E9D202"/>
<path id="Vector_18" d="M678.045 444.693C677.445 442.393 676.845 440.193 676.345 437.893C675.745 435.693 673.145 434.093 670.945 434.893C668.645 435.593 667.345 437.893 667.945 440.293L669.645 447.093C670.245 449.293 672.845 450.893 675.045 450.093C677.345 449.293 678.645 446.993 678.045 444.693Z" fill="#E9D202"/>
<path id="Vector_19" d="M694.146 440.593C691.546 440.593 690.046 442.593 689.846 444.893C689.546 447.493 688.646 449.993 687.346 452.293C684.746 457.193 692.246 461.693 694.846 456.593C696.746 452.793 697.846 448.893 698.446 444.693C698.846 442.693 696.346 440.593 694.146 440.593Z" fill="#E9D202"/>
</g>

<g class="flowers">
<path id="Vector_20" d="M266.945 448.793C263.945 445.293 260.245 442.893 256.345 440.993C258.645 438.993 260.645 436.493 262.145 433.493C263.445 430.893 261.845 426.493 258.345 426.993C253.145 427.593 248.745 429.793 245.745 433.393C242.145 430.193 237.645 428.293 232.245 427.993C229.345 427.893 227.445 430.893 228.045 433.493C228.645 435.993 229.645 438.293 231.045 440.193C223.545 441.193 217.145 443.993 220.345 451.093C222.245 455.293 226.245 456.593 230.645 456.193C230.345 459.393 231.645 462.293 235.745 464.493C242.745 468.293 248.345 462.593 251.145 456.093C255.645 458.593 261.145 458.693 266.045 455.693C268.545 454.093 268.745 450.893 266.945 448.793Z" fill="white"/>
<path id="Vector_21" d="M250.145 442.393C249.445 439.193 246.245 438.193 243.345 438.593C240.445 438.593 237.545 439.893 236.345 442.693C234.345 447.293 238.945 451.793 243.545 450.693C247.245 449.893 250.945 446.293 250.145 442.393Z" fill="#F7D16F"/>
</g>
<g class="flowers">
<path id="Vector_22" d="M568.645 471.093C565.645 467.593 561.945 465.193 558.045 463.293C560.345 461.293 562.345 458.793 563.845 455.793C565.145 453.193 563.545 448.793 560.045 449.293C554.845 449.893 550.445 452.093 547.445 455.693C543.845 452.493 539.345 450.593 533.945 450.293C531.045 450.193 529.145 453.193 529.745 455.793C530.345 458.293 531.345 460.593 532.745 462.493C525.245 463.493 518.845 466.293 522.045 473.393C523.945 477.593 527.945 478.893 532.345 478.493C532.045 481.693 533.345 484.593 537.445 486.793C544.445 490.593 550.045 484.893 552.845 478.393C557.345 480.893 562.845 480.993 567.745 477.993C570.145 476.293 570.545 473.193 568.645 471.093Z" fill="white"/>
<path id="Vector_23" d="M551.745 464.693C551.045 461.493 547.845 460.493 544.945 460.893C542.045 460.893 539.145 462.193 537.945 464.993C535.945 469.593 540.545 474.093 545.145 472.993C548.845 472.093 552.745 468.593 551.745 464.693Z" fill="#F7D16F"/>
</g>

<g id="Group_10">
<g id="Group_11">
<g id="Group_12">
<path id="Vector_24" d="M466.645 388.593C470.445 389.593 474.145 388.593 476.745 386.293C480.245 388.193 484.745 388.193 488.445 385.893C494.845 382.093 498.445 373.993 498.745 366.893C499.045 360.993 497.145 353.093 490.745 350.993C484.545 348.993 480.745 353.493 476.945 357.693C471.545 354.893 465.345 353.193 459.845 356.793C454.345 360.593 453.145 367.693 454.645 373.793C456.145 379.893 460.145 386.993 466.645 388.593Z" fill="#F087B1"/>
<path id="Vector_25" d="M470.945 356.293C470.645 353.693 470.245 351.193 469.945 348.593C469.645 346.293 471.645 344.093 474.045 343.993C476.545 343.893 478.345 345.693 478.645 348.093C478.945 350.693 479.345 353.193 479.645 355.793C479.945 358.093 477.945 360.293 475.545 360.393C473.145 360.493 471.245 358.593 470.945 356.293Z" fill="#57455E"/>
</g>
<g id="Group_13">
<path id="Vector_26" d="M490.245 388.793C493.145 391.393 496.945 392.293 500.245 391.593C502.445 394.893 506.445 396.993 510.845 396.693C518.245 396.293 525.145 390.793 528.845 384.693C531.845 379.493 533.745 371.793 529.145 366.893C524.645 362.093 519.145 364.393 513.945 366.293C510.445 361.393 505.645 356.893 499.345 357.593C492.645 358.293 488.445 364.093 486.845 370.193C484.845 376.093 485.145 384.093 490.245 388.793Z" fill="#F087B1"/>
<path id="Vector_27" d="M509.045 361.893C509.945 359.393 510.745 357.093 511.845 354.693C512.745 352.493 515.445 351.493 517.645 352.493C519.945 353.493 520.645 355.993 519.845 358.293C518.945 360.793 518.145 363.093 517.045 365.493C516.145 367.693 513.445 368.693 511.245 367.693C508.945 366.693 508.245 364.293 509.045 361.893Z" fill="#57455E"/>
</g>
<g id="Group_14">
<path id="Vector_28" d="M443.545 385.693C447.345 386.693 451.045 385.693 453.645 383.393C457.145 385.293 461.645 385.293 465.345 382.993C471.745 379.193 475.345 371.093 475.645 363.993C475.945 358.093 474.045 350.193 467.645 348.093C461.445 346.093 457.645 350.593 453.845 354.793C448.445 351.993 442.245 350.293 436.745 353.893C431.245 357.693 430.045 364.793 431.545 370.893C433.045 376.993 437.045 383.993 443.545 385.693Z" fill="#F087B1"/>
<path id="Vector_29" d="M447.745 353.193C447.445 350.593 447.045 348.093 446.745 345.493C446.445 343.193 448.445 340.993 450.845 340.893C453.345 340.793 455.145 342.593 455.445 344.993C455.745 347.593 456.145 350.093 456.445 352.693C456.745 354.993 454.745 357.193 452.345 357.293C449.945 357.393 448.045 355.593 447.745 353.193Z" fill="#57455E"/>
</g>
<path id="Vector_30" d="M558.645 362.993C553.445 356.593 545.645 359.393 540.245 363.893C535.345 368.093 530.945 372.893 529.945 378.993C522.245 377.993 514.445 377.293 506.745 376.393C492.245 374.793 477.645 373.193 463.145 371.493C451.545 370.193 439.645 369.593 427.945 367.893C423.645 358.893 417.845 349.493 407.045 347.593C398.945 346.193 389.245 351.093 393.845 360.393C397.945 368.493 406.845 372.393 415.145 374.293C416.345 374.593 417.445 374.893 418.745 374.993C421.545 389.293 424.445 403.693 427.545 417.893C429.445 425.993 429.745 441.193 439.245 444.293C445.045 446.193 452.245 445.493 458.345 445.593C466.045 445.893 473.545 446.293 481.245 446.593C488.345 446.893 495.545 447.193 502.745 447.593C509.145 447.893 517.245 449.593 523.445 447.993C526.745 447.093 529.145 444.693 530.245 441.493C532.545 434.993 533.245 427.393 534.545 420.493C535.845 413.493 537.045 406.593 538.145 399.593C538.545 396.693 539.845 392.593 540.045 388.893C545.445 388.493 550.645 386.393 554.645 382.693C560.545 377.893 563.745 369.293 558.645 362.993ZM404.145 355.993C407.045 354.693 412.545 359.893 414.145 361.693C415.145 362.993 416.145 364.293 417.045 365.793C412.845 364.393 398.345 358.493 404.145 355.993ZM546.045 378.593C543.545 379.893 540.945 380.293 538.345 380.293C538.945 376.993 541.845 374.093 544.145 371.893C546.045 370.193 550.845 365.193 552.245 369.393C553.745 373.193 548.845 377.193 546.045 378.593Z" fill="#F7D3BD"/>
</g>
<path id="Vector_31" d="M535.445 390.193C527.045 389.293 518.745 389.893 510.345 390.193C500.245 390.593 490.345 389.793 480.245 388.493C461.145 385.893 441.945 383.293 423.045 380.693C417.545 379.993 416.645 388.693 422.145 389.393C441.245 391.993 460.445 394.593 479.345 397.193C488.445 398.393 497.445 399.393 506.545 399.093C515.945 398.793 525.145 397.893 534.545 398.993C540.245 399.493 541.145 390.793 535.445 390.193Z" fill="#57455E"/>
</g>
</g>

<g id="clouds">
<path id="Vector_32" d="M781.745 300.493C780.445 292.493 773.946 286.293 766.346 283.993C759.246 281.793 751.746 283.693 745.646 287.593C743.946 279.493 738.546 272.393 730.846 268.993C722.746 265.393 713.446 266.393 705.946 270.993C702.046 263.193 691.845 261.393 685.245 267.093C681.646 264.193 676.446 263.193 671.946 265.093C667.046 267.093 664.245 272.193 664.245 277.393C659.645 275.993 653.945 276.093 649.746 276.693C643.546 277.593 637.445 280.593 634.245 286.293C631.645 290.893 631.645 296.693 635.245 300.793C635.345 300.893 635.646 301.193 635.846 301.393C633.346 302.793 631.246 304.893 629.946 307.593C626.746 313.993 628.345 321.893 633.745 326.593C643.445 335.193 660.945 336.893 671.745 329.193C675.646 336.893 683.145 342.193 692.045 342.793C701.045 343.393 709.745 338.493 714.545 330.893C723.645 337.893 735.245 343.193 746.745 338.393C753.845 335.493 758.746 327.793 758.146 320.393C762.646 322.293 767.846 322.293 772.346 320.093C779.346 316.893 783.046 308.193 781.745 300.493Z" fill="white"/>
<path id="Vector_33" d="M201.545 296.093C196.745 292.493 190.245 291.193 184.745 293.493C181.945 284.893 175.345 277.793 166.345 275.393C157.745 273.093 148.645 275.493 142.045 281.193C135.045 264.393 113.245 259.593 99.5454 273.193C99.4454 273.293 99.2454 273.493 99.1454 273.593C93.7454 265.593 82.7454 262.293 73.9454 266.593C66.7454 270.193 62.9454 277.993 63.3454 285.893C53.9454 283.693 43.2454 287.293 37.5454 295.493C34.0454 300.593 32.4454 307.393 35.0454 313.193C36.9454 317.393 41.2454 319.993 45.7454 319.893C51.9454 332.793 69.0454 335.693 79.0454 325.993C83.2454 333.493 90.6454 339.293 99.4454 339.893C108.045 340.293 116.245 335.693 120.145 328.293C128.545 333.793 138.245 338.693 148.445 337.093C155.945 335.893 162.745 331.293 165.645 324.293C172.145 329.193 180.245 332.093 188.545 330.793C196.845 329.493 204.245 323.693 206.945 315.693C209.845 308.593 207.745 300.793 201.545 296.093Z" fill="white"/>
</g>

<g id="iconSun">
<g id="sunray">
<path id="Vector_34" d="M143.445 125.793C138.845 121.693 134.145 117.493 129.545 113.493C125.345 109.693 119.245 115.993 123.445 119.593C128.045 123.693 132.745 127.893 137.345 131.893C141.545 135.693 147.645 129.493 143.445 125.793Z" fill="#F7D16F"/>
<path id="Vector_35" d="M135.745 148.493C129.545 150.193 123.145 150.993 116.645 150.693C110.945 150.593 110.945 159.293 116.645 159.393C123.845 159.693 130.945 158.793 138.145 156.893C143.445 155.393 141.145 146.993 135.745 148.493Z" fill="#F7D16F"/>
<path id="Vector_36" d="M147.645 194.993C143.545 197.793 139.245 200.193 134.645 201.993C132.445 202.893 130.845 204.893 131.645 207.393C132.245 209.393 134.845 211.293 137.045 210.393C142.445 208.393 147.445 205.793 152.145 202.593C156.645 199.493 152.245 191.893 147.645 194.993Z" fill="#F7D16F"/>
<path id="Vector_37" d="M184.145 232.393C183.245 225.993 182.245 219.793 181.345 213.393C180.645 207.893 172.245 210.193 172.945 215.693C173.845 222.093 174.845 228.293 175.745 234.693C176.445 240.193 184.845 237.693 184.145 232.393Z" fill="#F7D16F"/>
<path id="Vector_38" d="M228.545 225.393L218.845 207.693C216.045 202.793 208.545 207.093 211.345 211.993L221.045 229.693C223.745 234.693 231.245 230.293 228.545 225.393Z" fill="#F7D16F"/>
<path id="Vector_39" d="M258.245 173.993C252.445 174.393 246.945 173.393 241.745 170.993C236.645 168.493 232.345 176.093 237.445 178.493C244.145 181.693 251.045 183.293 258.445 182.693C263.745 182.193 263.745 173.493 258.245 173.993Z" fill="#F7D16F"/>
<path id="Vector_40" d="M262.845 129.193C256.945 130.893 251.145 132.793 245.145 134.593C239.745 136.193 242.145 144.593 247.445 142.993C253.345 141.293 259.145 139.393 265.145 137.593C270.545 135.993 268.245 127.593 262.845 129.193Z" fill="#F7D16F"/>
<path id="Vector_41" d="M227.645 82.8928C224.345 89.9928 221.845 97.1928 220.245 104.893C219.045 110.393 227.445 112.693 228.645 107.193C230.045 100.193 232.245 93.5927 235.145 87.1927C237.445 82.3927 230.145 77.8928 227.645 82.8928Z" fill="#F7D16F"/>
<path id="Vector_42" d="M177.445 69.4928C176.245 76.9928 176.045 84.3928 176.545 92.0928C176.945 97.5928 185.645 97.7928 185.245 92.0928C184.645 85.2928 184.845 78.4928 185.845 71.7928C186.645 66.2928 178.345 63.7928 177.445 69.4928Z" fill="#F7D16F"/>
<path id="Vector_43" d="M159.645 102.893C156.445 96.9927 152.645 91.5927 148.245 86.4927C144.445 82.2927 138.345 88.4927 142.145 92.5927C146.045 97.0927 149.345 101.893 152.145 107.093C154.745 112.193 162.245 107.893 159.645 102.893Z" fill="#F7D16F"/>
</g>
<path id="Vector_44" d="M209.845 125.093C201.845 119.193 191.545 116.293 181.545 116.693C176.345 116.993 167.945 118.593 165.445 123.393C157.345 130.893 152.445 144.993 151.545 153.993C149.645 173.593 165.745 187.593 183.745 191.793C199.845 195.393 217.045 186.093 223.345 171.093C229.945 154.793 223.745 135.593 209.845 125.093Z" fill="#F087B1"/>
<path id="Vector_45" d="M194.545 169.993C192.345 159.393 191.345 148.993 191.245 138.293C191.245 132.593 182.545 132.593 182.545 138.293C182.645 149.693 183.845 161.193 186.145 172.393C187.345 177.693 195.745 175.393 194.545 169.993Z" fill="#57455E"/>
<path id="Vector_46" d="M206.945 139.293C201.245 139.293 201.245 147.993 206.945 147.993C212.445 147.993 212.445 139.293 206.945 139.293Z" fill="#57455E"/>
<path id="Vector_47" d="M164.345 146.893H164.045C161.745 146.893 159.545 148.893 159.745 151.193C159.845 153.493 161.645 155.493 164.045 155.493H164.445C166.745 155.493 168.945 153.493 168.745 151.193C168.545 148.893 166.745 146.893 164.345 146.893Z" fill="#57455E"/>
</g>
</g>
</g>
<defs>
<linearGradient id="paint0_linear" x1="405.962" y1="12.9739" x2="418" y2="396" gradientUnits="userSpaceOnUse">
<stop offset="0.03125" stop-color="#36F1E6" stop-opacity="0.96875"/>
<stop offset="1" stop-color="white" stop-opacity="0"/>
</linearGradient>
<clipPath id="clip0">
<rect width="800" height="498.4" fill="white"/>
</clipPath>
</defs>
</svg>
