<?xml version="1.0" encoding="utf-8"?>
<!-- Generator: Adobe Illustrator 24.1.2, SVG Export Plug-In . SVG Version: 6.00 Build 0)  -->
<svg version="1.1" id="Layer_1" xmlns="http://www.w3.org/2000/svg" xmlns:xlink="http://www.w3.org/1999/xlink" x="0px" y="0px"
	 viewBox="0 0 1366 768" style="enable-background:new 0 0 1366 768;" xml:space="preserve">
<g>
	<path d="M1049.32,290.04c-2.9-8.34-7.13-15.97-12.18-23.19c-7.16-10.24-14.54-20.32-21.31-30.83
		c-5.62-8.73-11.02-17.62-17.68-25.62c-10.58-12.71-23.25-23-37.34-31.58c-6.51-3.97-13.06-7.88-19.27-12.3
		c-11.9-8.48-22.99-18.01-34.47-27.02c-10.42-8.18-21.59-15.14-33.75-20.41c-10.35-4.48-20.89-8.5-31.52-12.23
		c-12.99-4.55-26.05-8.86-39.71-11.08c-5.22-0.85-10.42-1.91-15.6-2.95c-4.49-0.9-9.05-1.02-13.55-1.71
		c-2.66-0.4-5.37-0.49-8.07-0.6c-2.68-0.11-5.37-0.52-8.02,0.41c-0.82,0.29-1.77,0.26-2.66,0.26c-4.79,0-9.38,1.14-13.55,3.29
		c-1.97,1.02-5.14,0.83-5.68,4.39c-0.12-1.79-0.69-2.16-2.1-1.47c-1.52,0.74-3.18,1.2-4.78,1.78c-1.22,0.44-2.47,0.86-1.91,2.95
		c-0.52-1.96-1.43-1.67-2.57-1.06c-2.84,1.53-5.77,2.9-8.59,4.48c-4.48,2.5-8.86,5.16-12.93,8.32c0-0.01,0-0.01,0-0.02
		c-2.88,1.61-5.25,3.92-7.87,5.88c-7.51,5.61-13.83,12.43-19.8,19.54c-11.02,13.12-19.92,27.68-27.91,42.81
		c-5.03,9.53-8.98,19.51-12.4,29.7c-4.04,12.04-6.15,24.51-7.46,37.09c-1.12,10.72-1.64,21.49-2.19,32.26
		c-1.11,21.72,2.84,42.35,12.66,61.7c7.36,14.51,16.7,27.81,26.53,40.74c12.34,16.22,28.46,26.97,47.93,32.87
		c12.34,3.74,24.9,6.46,37.63,8.48c10.96,1.74,21.97,2.71,33.02,1.53c7.07-0.76,14.05-2.17,20.97-3.92
		c13.49-3.4,26.22-8.84,38.8-14.62c15.09-6.93,30.08-14.12,45.52-20.23c7.26-2.87,14.83-5.12,22.39-7.27
		c15.22-4.32,30.65-5.34,46.25-3.18c11.11,1.54,22.12,1.24,33.12-0.62c6.72-1.14,13.19-3.2,19.64-5.39
		c9.42-3.2,18.02-7.8,25.26-14.64c3.59-3.4,7.1-6.83,9.64-11.34c1.84-3.26,3.49-6.51,4.96-9.94c3.18-7.45,3.93-15.34,4.27-23.24
		C1053.4,304.54,1051.8,297.18,1049.32,290.04z"/>
	<path d="M701.12,115.54c0.66-0.47,1-0.84,0.97-1.56c0.71,0.66,1.14,0.09,1.76-0.32c2.32-1.54,4.72-2.94,7.09-4.4
		c0.11,0.17,0.22,0.33,0.34,0.5c-1.78,1.22-3.54,2.49-5.35,3.66c-3.04,1.97-5.84,4.25-8.68,6.48c-0.59,0.46-1.06,1.25-2.01,0.93
		C696.82,118.63,698.97,117.06,701.12,115.54z"/>
	<path d="M700.57,120.71c-1.09-0.19-1.87,0.64-3.02,1.23c0.26-2.21,2.15-2.23,3.17-3.24C700.75,119.41,700.23,120.05,700.57,120.71z
		"/>
	<path d="M686.76,127.84c2.09-2.19,4.44-4.13,6.57-6.29c0.58-0.59,1.11-0.77,1.83-0.71c-1.08,2.68-3.79,3.8-5.69,5.66
		c-2.75,2.7-5.54,5.36-8.15,8.2c-0.46,0.5-1,0.92-1.68,1.08C681.42,132.61,684.31,130.41,686.76,127.84z"/>
	<path d="M679.49,135.95c-0.29,2.57-2.71,3.48-4.17,5.15C676.24,139.01,677.53,137.21,679.49,135.95z"/>
	<path d="M1018.09,358.73c5.56-3.68,10.72-7.85,15.41-13.43C1032.93,348.78,1022.76,357.48,1018.09,358.73z"/>
	<path d="M1043.54,308.87c-0.49,13.59-3.87,26.25-13.06,36.77c-6.04,6.91-13.66,11.64-22.01,15.2c-16.74,7.12-34.08,10.85-52.4,9.15
		c-7.26-0.67-14.49-1.75-21.82-1.59c-13.76,0.29-27,3.23-40.01,7.54c-20.39,6.75-39.63,16.14-58.99,25.29
		c-14.91,7.04-30.12,13.19-46.35,16.64c-12.68,2.69-25.32,3.23-38.16,1.33c-13.09-1.93-25.98-4.56-38.67-8.38
		c-17.8-5.37-31.81-15.82-42.66-30.71c-9.91-13.58-19.65-27.29-26.86-42.55c-3.07-6.5-5.02-13.43-6.68-20.43
		c-3.05-12.9-3.36-25.97-2.97-39.15c0.26-8.81,0.96-17.58,1.52-26.36c0.4-6.28,1.58-12.5,2.51-18.74c0.74-5.01,2.48-9.77,3.32-14.71
		c0.71-4.15,2.78-7.74,3.96-11.69c1.86-6.21,4.93-11.94,7.56-17.85c3.11-6.99,6.99-13.57,10.71-20.21
		c3.11-5.55,7.09-10.62,10.69-15.89c0.98-1.43,1.76-3.02,2.7-4.39c0.87-1.28,2.25-2.44,3.35-3.71c2.93-3.41,5.98-6.71,8.84-10.17
		c0.56-0.68,1.05-1.33,1.78-1.85c0.62-0.44,1.43-0.8,1.5-1.78c0.07-0.93-0.41-2.64,1.54-1.21c0.76-1.5,2.97-1.8,3.38-3.19
		c0.75-2.54,3.08-3.53,4.38-5.45c3.17-1.25,5.7-3.46,8.27-5.57c1.33-1.09,2.99-1.38,4.41-2.21c1.13-0.66,3.07-0.32,2.95-2.47
		c1.02,0.18,1.54-0.91,2.48-0.97c1.84-0.12,3.45-1.06,4.95-1.93c1.71-0.98,3.42-1.79,5.27-2.42c2.76-0.95,5.74-0.24,8.53-1.56
		c1.49-0.7,3.49-0.48,4.9-1.72c0.9-0.79,1.79-0.01,2.64,0.02c2.99,0.08,5.4-1.92,8.34-2.01c1.94-0.06,3.83-0.37,5.75,0.21
		c1.01,0.31,2.24,0.44,2.98-0.4c0.79-0.89,0.73-2.06-0.08-3.27c2.33,3.66,5.89,1.65,8.83,2.13c3.15,0.52,6.4,0.58,9.61,0.55
		c1.67-0.02,3.7-0.01,4.91,0.35c3.76,1.12,7.85,2.49,11.36,2.28c3.61-0.22,6.02,1.91,9.22,2.23c3.31,0.33,6.8,0.94,10.05,2.02
		c9.55,3.19,19.28,5.83,28.71,9.38c9.87,3.72,19.74,7.44,29.55,11.32c11.59,4.58,21.52,11.9,31.22,19.5
		c8.82,6.91,17.27,14.27,26.27,20.94c9.57,7.09,19.62,13.43,29.72,19.71c15.98,9.93,29.24,22.6,39.24,38.64
		c9.66,15.49,20.35,30.29,30.75,45.29C1039.37,282.23,1044.05,294.8,1043.54,308.87z"/>
	<path d="M515.28,482.32c-1.58-3.57-4.15-6.31-7.36-8.47c-2.18-1.46-4.42-2.8-6.91-3.65c-2.29-0.78-4.53-1.77-6.96-1.94
		c-0.71-0.05-1.2-0.63-1.99-0.51c-0.72,0.12-1.56,0.28-2.19-0.39c-1.95,0.19-3.94-0.36-5.88,0.41c-1.39,0.55-2.83,0.9-4.38,0.98
		c-0.88,0.05-1.88,0.21-2.78,0.51c-2.17,0.74-4.23,1.68-6.09,3.05c-1.48,1.09-3.03,2.08-4.07,3.65c-1-0.1-0.69,1.05-1.33,1.39
		c-0.61,0.33-1.18,0.9-1.51,1.51c-1.38,2.53-3.13,4.82-4.22,7.54c-1.11,2.79-1.77,5.65-2.25,8.56c-0.25,1.47-0.14,3.03-0.01,4.53
		c0.08,0.87,0.57,1.7,0.4,2.63c0.89,0.47,0.32,1.4,0.65,2.11c0.45,0.94,0.69,2.06,1.33,2.89c0.68,0.87,0.66,2.19,1.8,2.73
		c0.95,1.89,2.3,3.37,4.07,4.58c1.12,0.77,2.29,1.54,3.31,2.43c1.12,0.98,2.49,1.36,3.76,1.91c1.22,0.53,2.64,0.62,3.91,1.02
		c2.39,0.74,4.82,1.02,7.28,1.19c0.79,0.06,1.58,0.01,2.68,0.01c1.59-0.1,3.46,0.07,5.37-0.37c2.17-0.5,4.35-0.97,6.35-1.91
		c2.3-1.08,4.62-2.2,6.65-3.78c1.95-1.52,4.19-2.78,5.19-5.26c0.15-0.37,0.53-0.65,0.81-0.96c1.23-1.38,2.68-2.65,2.65-4.74
		c0-0.11,0.2-0.2,0.25-0.32c0.57-1.42,1.13-2.85,1.69-4.27c0.74-1.89,1.4-3.85,1.45-5.86c0.07-2.31,0.3-4.63-0.31-6.97
		C516.24,485.09,515.88,483.67,515.28,482.32z"/>
	<path d="M507.44,490.23c-0.18,1.75-0.53,3.5-1.04,5.18c-0.5,1.65-1.15,3.28-1.99,4.78c-1.83,3.29-4.23,6.06-7.19,8.48
		c-2.31,1.89-4.9,3.13-7.45,4.52c-1.31,0.71-2.81,0.86-4.21,1.29c-2.63,0.81-5.36,0.53-8.02,0.36c-1.75-0.11-3.57-0.65-5.11-1.66
		c-1.5-0.98-3.08-1.9-3.89-3.63c-0.06-0.12-0.18-0.21-0.27-0.32c-0.48-0.56-0.85-1.32-1.46-1.62c-0.97-0.47,0.1-1.59-0.81-1.94
		c0.18-0.8-0.37-1.44-0.55-2.16c-0.53-2.17-0.98-4.33-0.79-6.56c0.3-3.45,0.97-6.79,2.53-9.96c1.07-2.17,2.02-4.44,3.57-6.27
		c1.32-1.56,2.28-3.46,4.21-4.55c0.91-0.52,1.77-1.33,2.6-2.08c1.32-1.2,2.71-1.56,4.34-0.69c0.11,0.06,0.28,0.01,0.66,0.01
		c0.29-0.28,0.6-0.57,0.9-0.85c0.26,0.26,0.52,0.52,0.78,0.78c0.59-0.29,1.2-0.72,1.79,0.06c0.3-0.28,0.6-0.56,0.88-0.82
		c0.17,0.12,0.35,0.37,0.47,0.34c1.72-0.42,1.72-0.45,3.36,0.02c0.67,0.19,1.34,0,2.06,0.23c1.15,0.37,2.33,0.66,3.34,1.31
		c0.54,0.34,1.14-0.8,1.52,0.18c1.77-0.1,3.07,1.03,4.39,1.88c1.18,0.76,2.23,1.87,3.04,3.03c0.71,1.01,1.12,2.27,1.47,3.48
		C507.26,485.38,507.69,487.8,507.44,490.23z"/>
	<path d="M627.21,399.94c-2.21-5-5.8-8.82-10.29-11.83c-3.04-2.04-6.18-3.91-9.66-5.1c-3.19-1.09-6.33-2.47-9.73-2.71
		c-1-0.07-1.68-0.89-2.78-0.71c-1,0.16-2.18,0.39-3.06-0.55c-2.73,0.26-5.5-0.51-8.22,0.57c-1.94,0.77-3.95,1.26-6.12,1.37
		c-1.23,0.06-2.63,0.29-3.89,0.72c-3.03,1.03-5.91,2.34-8.51,4.26c-2.06,1.52-4.23,2.9-5.69,5.1c-1.4-0.14-0.96,1.46-1.86,1.94
		c-0.85,0.46-1.65,1.26-2.11,2.11c-1.92,3.53-4.37,6.74-5.89,10.54c-1.55,3.89-2.47,7.9-3.15,11.97c-0.34,2.06-0.19,4.23-0.01,6.33
		c0.1,1.22,0.79,2.38,0.55,3.68c1.24,0.65,0.44,1.96,0.91,2.95c0.63,1.32,0.96,2.88,1.86,4.04c0.95,1.22,0.92,3.05,2.51,3.81
		c1.32,2.64,3.21,4.71,5.69,6.4c1.57,1.07,3.2,2.15,4.63,3.4c1.57,1.37,3.47,1.9,5.26,2.67c1.71,0.74,3.69,0.87,5.46,1.42
		c3.34,1.03,6.73,1.42,10.17,1.66c1.1,0.08,2.21,0.01,3.74,0.01c2.22-0.14,4.84,0.09,7.5-0.52c3.03-0.7,6.08-1.35,8.88-2.67
		c3.22-1.51,6.46-3.07,9.29-5.28c2.73-2.13,5.85-3.88,7.25-7.35c0.21-0.52,0.74-0.9,1.13-1.34c1.72-1.93,3.75-3.7,3.7-6.63
		c0-0.15,0.28-0.28,0.35-0.45c0.79-1.99,1.58-3.98,2.36-5.97c1.03-2.64,1.95-5.39,2.03-8.19c0.09-3.23,0.42-6.47-0.43-9.74
		C628.55,403.82,628.05,401.83,627.21,399.94z"/>
	<path d="M616.24,411c-0.26,2.44-0.74,4.89-1.45,7.24c-0.7,2.3-1.61,4.59-2.78,6.68c-2.56,4.59-5.91,8.46-10.05,11.86
		c-3.23,2.65-6.85,4.37-10.41,6.31c-1.83,1-3.92,1.2-5.89,1.81c-3.68,1.14-7.49,0.74-11.21,0.51c-2.44-0.15-4.99-0.91-7.14-2.32
		c-2.09-1.37-4.3-2.65-5.43-5.07c-0.08-0.17-0.26-0.3-0.38-0.44c-0.67-0.78-1.19-1.85-2.03-2.26c-1.36-0.66,0.14-2.22-1.13-2.71
		c0.25-1.12-0.52-2.02-0.76-3.02c-0.74-3.03-1.37-6.06-1.1-9.17c0.42-4.82,1.36-9.49,3.54-13.92c1.49-3.04,2.82-6.21,4.99-8.76
		c1.85-2.17,3.19-4.83,5.89-6.37c1.28-0.73,2.48-1.87,3.63-2.91c1.84-1.67,3.79-2.18,6.06-0.96c0.16,0.08,0.4,0.01,0.93,0.01
		c0.41-0.39,0.84-0.79,1.26-1.19c0.37,0.37,0.72,0.72,1.09,1.09c0.83-0.41,1.68-1.01,2.5,0.09c0.42-0.39,0.84-0.78,1.23-1.15
		c0.23,0.17,0.49,0.51,0.66,0.47c2.4-0.58,2.41-0.63,4.69,0.02c0.94,0.27,1.88,0.01,2.87,0.32c1.61,0.51,3.26,0.92,4.67,1.83
		c0.75,0.48,1.59-1.12,2.12,0.25c2.47-0.14,4.29,1.44,6.13,2.63c1.65,1.07,3.11,2.62,4.25,4.24c0.99,1.41,1.57,3.17,2.06,4.86
		C616,404.22,616.6,407.59,616.24,411z"/>
</g>
</svg>
